<svg width="1440" height="1881" viewBox="0 0 1440 1881" fill="none" xmlns="http://www.w3.org/2000/svg">
<g clip-path="url(#clip0_66_12)">
<line x1="59.5" y1="1881" x2="59.5" stroke="white" stroke-opacity="0.4"/>
<line x1="299.5" y1="1881" x2="299.5" stroke="white" stroke-opacity="0.4"/>
<line x1="539.5" y1="1881" x2="539.5" stroke="white" stroke-opacity="0.4"/>
<line x1="779.5" y1="1881" x2="779.5" stroke="white" stroke-opacity="0.4"/>
<line x1="1019.5" y1="1881" x2="1019.5" stroke="white" stroke-opacity="0.4"/>
<line x1="1259.5" y1="1881" x2="1259.5" stroke="white" stroke-opacity="0.4"/>
<line x1="119.5" y1="1881" x2="119.5" stroke="white" stroke-opacity="0.4"/>
<line x1="359.5" y1="1881" x2="359.5" stroke="white" stroke-opacity="0.4"/>
<line x1="599.5" y1="1881" x2="599.5" stroke="white" stroke-opacity="0.4"/>
<line x1="839.5" y1="1881" x2="839.5" stroke="white" stroke-opacity="0.4"/>
<line x1="1079.5" y1="1881" x2="1079.5" stroke="white" stroke-opacity="0.4"/>
<line x1="1319.5" y1="1881" x2="1319.5" stroke="white" stroke-opacity="0.4"/>
<line x1="179.5" y1="1881" x2="179.5" stroke="white" stroke-opacity="0.4"/>
<line x1="419.5" y1="1881" x2="419.5" stroke="white" stroke-opacity="0.4"/>
<line x1="659.5" y1="1881" x2="659.5" stroke="white" stroke-opacity="0.4"/>
<line x1="899.5" y1="1881" x2="899.5" stroke="white" stroke-opacity="0.4"/>
<line x1="1139.5" y1="1881" x2="1139.5" stroke="white" stroke-opacity="0.4"/>
<line x1="1379.5" y1="1881" x2="1379.5" stroke="white" stroke-opacity="0.4"/>
<line x1="239.5" y1="1881" x2="239.5" stroke="white" stroke-opacity="0.4"/>
<line x1="479.5" y1="1881" x2="479.5" stroke="white" stroke-opacity="0.4"/>
<line x1="719.5" y1="1881" x2="719.5" stroke="white" stroke-opacity="0.4"/>
<line x1="959.5" y1="1881" x2="959.5" stroke="white" stroke-opacity="0.4"/>
<line x1="1199.5" y1="1881" x2="1199.5" stroke="white" stroke-opacity="0.4"/>
<line x1="1439.5" y1="1881" x2="1439.5" stroke="white" stroke-opacity="0.4"/>
<g clip-path="url(#clip1_66_12)">
<path fill-rule="evenodd" clip-rule="evenodd" d="M398.8 439C398.8 468.161 375.161 491.8 346 491.8C316.839 491.8 293.2 468.161 293.2 439C293.2 409.839 316.839 386.2 346 386.2C375.161 386.2 398.8 409.839 398.8 439ZM406 439C406 472.137 379.137 499 346 499C312.863 499 286 472.137 286 439C286 405.863 312.863 379 346 379C379.137 379 406 405.863 406 439ZM346 445.6C349.645 445.6 352.6 442.645 352.6 439C352.6 435.355 349.645 432.4 346 432.4C342.355 432.4 339.4 435.355 339.4 439C339.4 442.645 342.355 445.6 346 445.6Z" fill="white" fill-opacity="0.5"/>
</g>
<path fill-rule="evenodd" clip-rule="evenodd" d="M764.447 701.183C764.566 721.829 758.544 751.522 756.022 771.9C750.268 818.709 750.09 823.633 749.141 870.827C748.28 913.453 748.102 956.94 753.027 999.269C756.052 1025.25 763.676 1053.23 763.676 1079.45C763.676 1081.08 765.01 1082.42 766.642 1082.42C768.273 1082.42 769.608 1081.08 769.608 1079.45C769.608 1053.02 761.955 1024.78 758.93 998.587C754.035 956.525 754.213 913.305 755.073 870.946C756.023 824.048 756.201 819.154 761.926 772.612C764.447 751.996 770.528 721.977 770.38 701.124C770.38 699.492 769.045 698.157 767.384 698.187C765.752 698.187 764.417 699.551 764.447 701.183Z" fill="white" fill-opacity="0.5"/>
<path fill-rule="evenodd" clip-rule="evenodd" d="M762.845 660.455C750.09 655.946 736.534 647.73 726.063 639.305C717.668 632.542 711.261 625.631 708.621 620.41C681.835 567.164 688.301 504.13 700.997 482.001C722.651 444.269 766.761 437.12 787.139 439.375C804.314 441.273 841.304 458.537 852.25 470.67C864.649 484.404 870.286 502.409 869.989 522.758C869.544 552.54 856.344 587.424 833.533 620.766C823.269 635.746 799.717 655.057 778.181 661.76C780.435 663.955 782.749 666.714 784.915 669.829C791.411 679.173 796.78 691.75 796.78 701.124C796.78 701.776 796.661 703.526 794.466 704.031C794.377 704.06 793.843 704.12 792.953 704.09C788.474 703.912 765.96 702.459 764.15 702.103C763.201 701.925 760.057 702.103 756.201 702.281C749.734 702.577 741.517 702.963 737.542 702.399C735.407 702.103 734.042 701.302 733.508 700.649C732.648 699.67 732.411 698.543 732.826 697.267C734.606 691.928 743.03 680.359 747.895 676.325C751.87 673.003 754.569 668.998 757.357 665.676C759.048 663.659 760.828 661.849 762.845 660.455ZM771.18 663.511C770.914 663.57 770.617 663.6 770.35 663.659C766.642 664.252 764.269 666.685 761.866 669.562C758.87 673.121 755.934 677.363 751.662 680.953C748.102 683.919 742.229 691.572 739.559 696.674C740.004 696.733 740.509 696.763 740.954 696.793C748.874 697.089 763.023 695.873 765.307 696.348C766.85 696.645 783.491 697.742 790.669 698.098C789.69 690.178 785.182 680.626 780.05 673.27C777.083 668.998 773.998 665.439 771.18 663.511ZM772.189 657.252C771.863 657.103 771.566 656.955 771.24 656.836C771.121 656.777 771.002 656.747 770.884 656.718C757.12 653.277 741.458 644.081 729.771 634.708C722.206 628.627 716.303 622.486 713.93 617.77C688.242 566.66 693.967 506.236 706.129 484.967C726.3 449.787 767.473 443.172 786.457 445.278C802.624 447.087 837.508 463.224 847.83 474.644C859.251 487.311 864.323 503.952 864.027 522.669C863.611 551.502 850.678 585.17 828.579 617.414C818.256 632.542 793.547 652.476 772.189 657.252Z" fill="white" fill-opacity="0.5"/>
<path fill-rule="evenodd" clip-rule="evenodd" d="M1012.67 1352.21C1007.9 1350.47 994.502 1345.18 983.775 1346.83C964.443 1349.83 945.49 1358.81 934.647 1370.41C927.292 1378.29 923.6 1387.42 925.489 1396.78C925.257 1397.44 925.228 1398.2 925.577 1399.07C925.867 1399.8 926.74 1400.96 928.367 1402.21C935.257 1407.56 958.339 1419.25 961.391 1421.08C982.292 1433.81 1004.3 1441.22 1027.09 1449.77C1032.15 1451.66 1039.33 1455.21 1045.17 1455.58C1050.17 1455.88 1054.33 1454.22 1056.48 1448.84C1063.31 1431.81 1064.42 1407.36 1058.63 1389.94C1058.14 1388.43 1052.09 1374.04 1051.13 1369.22C1054.47 1365.99 1058.43 1362.62 1060.03 1357.79C1060.93 1355.09 1060.08 1352.01 1057.82 1349.07C1053.75 1343.84 1044.94 1338.84 1039.97 1337.59C1033.14 1335.87 1027.67 1338.08 1022.93 1341.86C1019.21 1344.8 1015.96 1348.75 1012.67 1352.21ZM931.507 1397.21C931.507 1397.04 931.478 1396.83 931.42 1396.66C929.385 1388.72 932.67 1381.05 938.891 1374.36C948.978 1363.55 966.682 1355.35 984.647 1352.56C995.432 1350.9 1009.09 1357.21 1012.06 1358.14C1014.09 1358.78 1015.32 1357.79 1015.58 1357.53C1019.12 1353.99 1022.53 1349.57 1026.51 1346.43C1029.88 1343.75 1033.69 1342.04 1038.54 1343.23C1042.06 1344.1 1047.93 1347.3 1051.62 1350.9C1052.73 1351.98 1053.63 1353.05 1054.15 1354.16C1054.44 1354.77 1054.65 1355.38 1054.47 1355.96C1053.02 1360.29 1049.04 1363.05 1046.16 1365.93C1045.78 1366.31 1045.4 1366.86 1045.26 1367.68C1045.14 1368.32 1045.2 1369.65 1045.66 1371.4C1047.18 1377.21 1052.61 1390.35 1053.08 1391.81C1058.48 1408.03 1057.41 1430.82 1051.04 1446.69C1049.65 1450.15 1046.45 1450.18 1043.02 1449.45C1038.25 1448.43 1032.99 1445.82 1029.07 1444.36C1006.62 1435.93 984.909 1428.69 964.327 1416.17C961.682 1414.57 943.862 1405.53 934.879 1399.74C933.658 1398.9 932.292 1397.85 931.507 1397.21Z" fill="white" fill-opacity="0.5"/>
<path fill-rule="evenodd" clip-rule="evenodd" d="M971.74 1426.49C972.554 1425.73 972.903 1424.51 972.525 1423.4C971.827 1421.43 970.49 1421.08 969.909 1420.96C969.007 1420.82 968.077 1420.99 967.234 1421.86C966.914 1422.18 966.449 1422.91 966.188 1424.01C965.81 1425.7 965.577 1429.25 965.577 1430.44C965.577 1436.49 966.914 1441.6 971.827 1445.7C976.624 1449.68 981.101 1450.96 985.316 1450.58C991.275 1450.06 996.827 1445.99 1002.09 1440.73C1003.22 1439.6 1003.22 1437.76 1002.09 1436.63C1000.96 1435.5 999.124 1435.5 997.99 1436.63C993.165 1441.46 988.339 1445.5 982.728 1444.77C980.432 1444.48 978.077 1443.35 975.548 1441.25C972.089 1438.38 971.391 1434.68 971.391 1430.47C971.391 1429.77 971.595 1427.82 971.74 1426.49Z" fill="white" fill-opacity="0.5"/>
<path fill-rule="evenodd" clip-rule="evenodd" d="M1161.54 1416.98C1158.05 1423.38 1150.9 1436.49 1150.26 1438C1139.01 1463.72 1129.21 1490.73 1118.92 1516.89C1113.57 1530.47 1105.26 1544.13 1101.51 1558.17C1100.67 1561.28 1099.56 1573.17 1099.21 1577.1C1097.09 1579.36 1097.15 1582.94 1099.36 1585.15C1101.77 1587.56 1104.21 1587.45 1106.31 1586.55C1107.47 1586.05 1109.24 1584.77 1110.17 1581.95C1111.42 1578.09 1111.74 1565 1112.76 1561.17C1116.39 1547.56 1124.56 1534.31 1129.74 1521.14C1140 1495.09 1149.74 1468.23 1160.93 1442.65C1161.71 1440.85 1170.4 1426.37 1173.43 1419.8C1174.45 1417.62 1174.91 1415.9 1174.97 1415.06C1175.11 1413.55 1174.74 1412.42 1174.36 1411.66C1173.52 1409.97 1170.99 1407.79 1167.06 1406.43C1162.56 1404.89 1155.52 1403.78 1153.49 1402.79C1146.39 1399.31 1111.8 1384.13 1107.06 1382.33C1092.06 1376.72 1063.57 1364.54 1060.37 1363.17C1058.37 1361.4 1055.32 1361.19 1053.08 1362.88C1051.94 1363.72 1051.3 1364.77 1050.96 1365.93C1050.72 1366.72 1050.03 1370.67 1054.3 1373.14C1058.98 1375.82 1086.51 1387.07 1102.99 1393.23C1107.64 1394.97 1141.45 1409.83 1148.37 1413.23C1149.94 1414.01 1153.95 1414.97 1158.08 1415.96C1159.1 1416.22 1160.38 1416.6 1161.54 1416.98ZM1104.85 1575.38C1105.84 1575.61 1106.8 1576.14 1107.58 1576.92C1106.68 1575.99 1105.75 1575.56 1104.85 1575.38ZM1060.2 1372.01L1059.97 1372.18C1060.05 1372.12 1060.14 1372.07 1060.2 1372.01ZM1061.65 1370.24C1061.3 1370.9 1060.84 1371.51 1060.23 1372.01C1060.87 1371.49 1061.33 1370.87 1061.65 1370.24Z" fill="white" fill-opacity="0.5"/>
<path fill-rule="evenodd" clip-rule="evenodd" d="M1054.04 1611.54C1079.07 1611.54 1103.98 1610.5 1129.01 1610.5C1138.66 1610.5 1151.42 1610.5 1151.42 1610.5C1153.02 1610.5 1154.33 1609.19 1154.33 1607.59C1154.33 1593.38 1144.07 1585.5 1130.03 1581.95C1110.55 1577.04 1083.83 1580.56 1071.8 1584.51C1064.97 1586.75 1053.25 1597.45 1050 1603.46C1048.49 1606.22 1048.72 1608.52 1049.62 1609.77C1050.37 1610.79 1051.71 1611.69 1054.04 1611.54ZM1055.49 1605.73C1055.81 1605.15 1056.22 1604.51 1056.62 1603.99C1060.61 1598.75 1068.63 1591.69 1073.63 1590.03C1084.97 1586.31 1110.23 1582.94 1128.6 1587.59C1138.81 1590.18 1146.92 1595.21 1148.28 1604.68H1128.98C1104.47 1604.68 1080.03 1605.7 1055.49 1605.73Z" fill="white" fill-opacity="0.5"/>
<line x1="1440" y1="1262.52" y2="1262.52" stroke="white" stroke-opacity="0.4"/>
<line x1="1440" y1="1022.52" y2="1022.52" stroke="white" stroke-opacity="0.4"/>
<line x1="1440" y1="782.516" y2="782.516" stroke="white" stroke-opacity="0.4"/>
<line x1="1440" y1="542.516" y2="542.516" stroke="white" stroke-opacity="0.4"/>
<line x1="1440" y1="302.516" y2="302.516" stroke="white" stroke-opacity="0.4"/>
<line x1="1440" y1="62.5156" y2="62.5156" stroke="white" stroke-opacity="0.4"/>
<line x1="1440" y1="1202.52" y2="1202.52" stroke="white" stroke-opacity="0.4"/>
<line x1="1440" y1="962.516" y2="962.516" stroke="white" stroke-opacity="0.4"/>
<line x1="1440" y1="722.516" y2="722.516" stroke="white" stroke-opacity="0.4"/>
<line x1="1440" y1="482.516" y2="482.516" stroke="white" stroke-opacity="0.4"/>
<line x1="1440" y1="242.516" y2="242.516" stroke="white" stroke-opacity="0.4"/>
<line x1="1440" y1="2.51562" y2="2.51562" stroke="white" stroke-opacity="0.4"/>
<line x1="1440" y1="1142.52" y2="1142.52" stroke="white" stroke-opacity="0.4"/>
<line x1="1440" y1="902.516" y2="902.516" stroke="white" stroke-opacity="0.4"/>
<line x1="1440" y1="662.516" y2="662.516" stroke="white" stroke-opacity="0.4"/>
<line x1="1440" y1="422.516" y2="422.516" stroke="white" stroke-opacity="0.4"/>
<line x1="1440" y1="182.516" y2="182.516" stroke="white" stroke-opacity="0.4"/>
<line x1="1440" y1="1082.52" y2="1082.52" stroke="white" stroke-opacity="0.4"/>
<line x1="1440" y1="842.516" y2="842.516" stroke="white" stroke-opacity="0.4"/>
<line x1="1440" y1="602.516" y2="602.516" stroke="white" stroke-opacity="0.4"/>
<line x1="1440" y1="362.516" y2="362.516" stroke="white" stroke-opacity="0.4"/>
<line x1="1440" y1="122.516" y2="122.516" stroke="white" stroke-opacity="0.4"/>
<line x1="1440" y1="1740.5" y2="1740.5" stroke="white" stroke-opacity="0.4"/>
<line x1="1440" y1="1500.5" y2="1500.5" stroke="white" stroke-opacity="0.4"/>
<line x1="1440" y1="1680.5" y2="1680.5" stroke="white" stroke-opacity="0.4"/>
<line x1="1440" y1="1440.5" y2="1440.5" stroke="white" stroke-opacity="0.4"/>
<line x1="1440" y1="1860.5" y2="1860.5" stroke="white" stroke-opacity="0.4"/>
<line x1="1440" y1="1620.5" y2="1620.5" stroke="white" stroke-opacity="0.4"/>
<line x1="1440" y1="1380.5" y2="1380.5" stroke="white" stroke-opacity="0.4"/>
<line x1="1440" y1="1800.5" y2="1800.5" stroke="white" stroke-opacity="0.4"/>
<line x1="1440" y1="1560.5" y2="1560.5" stroke="white" stroke-opacity="0.4"/>
<line x1="1440" y1="1320.5" y2="1320.5" stroke="white" stroke-opacity="0.4"/>
<g opacity="0.5">
<path fill-rule="evenodd" clip-rule="evenodd" d="M1144.72 257.108C1144.72 267.937 1135.94 276.716 1125.11 276.716C1114.28 276.716 1105.5 267.937 1105.5 257.108C1105.5 246.279 1114.28 237.5 1125.11 237.5C1135.94 237.5 1144.72 246.279 1144.72 257.108ZM1138.83 257.108C1138.83 264.688 1132.69 270.833 1125.11 270.833C1117.53 270.833 1111.38 264.688 1111.38 257.108C1111.38 249.528 1117.53 243.382 1125.11 243.382C1132.69 243.382 1138.83 249.528 1138.83 257.108Z" fill="white"/>
<path fill-rule="evenodd" clip-rule="evenodd" d="M1125.13 288.015C1142.19 288.015 1156.01 274.188 1156.01 257.132C1156.01 240.077 1142.19 226.25 1125.13 226.25C1108.08 226.25 1094.25 240.077 1094.25 257.132C1094.25 274.188 1108.08 288.015 1125.13 288.015ZM1125.13 282.132C1138.94 282.132 1150.13 270.94 1150.13 257.132C1150.13 243.325 1138.94 232.132 1125.13 232.132C1111.33 232.132 1100.13 243.325 1100.13 257.132C1100.13 270.94 1111.33 282.132 1125.13 282.132Z" fill="white"/>
<path fill-rule="evenodd" clip-rule="evenodd" d="M1166.82 256.912C1166.82 280.059 1148.06 298.824 1124.91 298.824C1101.76 298.824 1083 280.059 1083 256.912C1083 233.765 1101.76 215 1124.91 215C1148.06 215 1166.82 233.765 1166.82 256.912ZM1160.94 256.912C1160.94 276.81 1144.81 292.941 1124.91 292.941C1105.01 292.941 1088.88 276.81 1088.88 256.912C1088.88 237.013 1105.01 220.882 1124.91 220.882C1144.81 220.882 1160.94 237.013 1160.94 256.912Z" fill="white"/>
<path fill-rule="evenodd" clip-rule="evenodd" d="M1124.69 309.632C1153.93 309.632 1177.63 285.93 1177.63 256.691C1177.63 227.453 1153.93 203.75 1124.69 203.75C1095.45 203.75 1071.75 227.453 1071.75 256.691C1071.75 285.93 1095.45 309.632 1124.69 309.632ZM1124.69 303.75C1150.68 303.75 1171.75 282.681 1171.75 256.691C1171.75 230.701 1150.68 209.632 1124.69 209.632C1098.7 209.632 1077.63 230.701 1077.63 256.691C1077.63 282.681 1098.7 303.75 1124.69 303.75Z" fill="white"/>
<path fill-rule="evenodd" clip-rule="evenodd" d="M1188.7 256.975C1188.7 292.17 1160.17 320.701 1124.98 320.701C1089.78 320.701 1061.25 292.17 1061.25 256.975C1061.25 221.781 1089.78 193.25 1124.98 193.25C1160.17 193.25 1188.7 221.781 1188.7 256.975ZM1182.82 256.975C1182.82 288.921 1156.92 314.819 1124.98 314.819C1093.03 314.819 1067.13 288.921 1067.13 256.975C1067.13 225.03 1093.03 199.132 1124.98 199.132C1156.92 199.132 1182.82 225.03 1182.82 256.975Z" fill="white"/>
<path fill-rule="evenodd" clip-rule="evenodd" d="M1200 257C1200 298.421 1166.42 332 1125 332C1083.58 332 1050 298.421 1050 257C1050 215.579 1083.58 182 1125 182C1166.42 182 1200 215.579 1200 257ZM1194.12 257C1194.12 295.173 1163.17 326.118 1125 326.118C1086.83 326.118 1055.88 295.173 1055.88 257C1055.88 218.827 1086.83 187.882 1125 187.882C1163.17 187.882 1194.12 218.827 1194.12 257Z" fill="white"/>
</g>
<g opacity="0.5">
<path fill-rule="evenodd" clip-rule="evenodd" d="M574.716 1337.11C574.716 1347.94 565.937 1356.72 555.108 1356.72C544.279 1356.72 535.5 1347.94 535.5 1337.11C535.5 1326.28 544.279 1317.5 555.108 1317.5C565.937 1317.5 574.716 1326.28 574.716 1337.11ZM568.833 1337.11C568.833 1344.69 562.688 1350.83 555.108 1350.83C547.527 1350.83 541.382 1344.69 541.382 1337.11C541.382 1329.53 547.527 1323.38 555.108 1323.38C562.688 1323.38 568.833 1329.53 568.833 1337.11Z" fill="white"/>
<path fill-rule="evenodd" clip-rule="evenodd" d="M555.132 1368.01C572.188 1368.01 586.015 1354.19 586.015 1337.13C586.015 1320.08 572.188 1306.25 555.132 1306.25C538.076 1306.25 524.25 1320.08 524.25 1337.13C524.25 1354.19 538.076 1368.01 555.132 1368.01ZM555.132 1362.13C568.939 1362.13 580.132 1350.94 580.132 1337.13C580.132 1323.33 568.939 1312.13 555.132 1312.13C541.325 1312.13 530.132 1323.33 530.132 1337.13C530.132 1350.94 541.325 1362.13 555.132 1362.13Z" fill="white"/>
<path fill-rule="evenodd" clip-rule="evenodd" d="M596.823 1336.91C596.823 1360.06 578.059 1378.82 554.912 1378.82C531.764 1378.82 513 1360.06 513 1336.91C513 1313.76 531.764 1295 554.912 1295C578.059 1295 596.823 1313.76 596.823 1336.91ZM590.941 1336.91C590.941 1356.81 574.81 1372.94 554.912 1372.94C535.013 1372.94 518.882 1356.81 518.882 1336.91C518.882 1317.01 535.013 1300.88 554.912 1300.88C574.81 1300.88 590.941 1317.01 590.941 1336.91Z" fill="white"/>
<path fill-rule="evenodd" clip-rule="evenodd" d="M554.691 1389.63C583.93 1389.63 607.632 1365.93 607.632 1336.69C607.632 1307.45 583.93 1283.75 554.691 1283.75C525.452 1283.75 501.75 1307.45 501.75 1336.69C501.75 1365.93 525.452 1389.63 554.691 1389.63ZM554.691 1383.75C580.681 1383.75 601.75 1362.68 601.75 1336.69C601.75 1310.7 580.681 1289.63 554.691 1289.63C528.701 1289.63 507.632 1310.7 507.632 1336.69C507.632 1362.68 528.701 1383.75 554.691 1383.75Z" fill="white"/>
<path fill-rule="evenodd" clip-rule="evenodd" d="M618.701 1336.98C618.701 1372.17 590.17 1400.7 554.975 1400.7C519.781 1400.7 491.25 1372.17 491.25 1336.98C491.25 1301.78 519.781 1273.25 554.975 1273.25C590.17 1273.25 618.701 1301.78 618.701 1336.98ZM612.819 1336.98C612.819 1368.92 586.921 1394.82 554.975 1394.82C523.03 1394.82 497.132 1368.92 497.132 1336.98C497.132 1305.03 523.03 1279.13 554.975 1279.13C586.921 1279.13 612.819 1305.03 612.819 1336.98Z" fill="white"/>
<path fill-rule="evenodd" clip-rule="evenodd" d="M630 1337C630 1378.42 596.421 1412 555 1412C513.579 1412 480 1378.42 480 1337C480 1295.58 513.579 1262 555 1262C596.421 1262 630 1295.58 630 1337ZM624.118 1337C624.118 1375.17 593.173 1406.12 555 1406.12C516.827 1406.12 485.882 1375.17 485.882 1337C485.882 1298.83 516.827 1267.88 555 1267.88C593.173 1267.88 624.118 1298.83 624.118 1337Z" fill="white"/>
</g>
<path fill-rule="evenodd" clip-rule="evenodd" d="M170.53 981.878C170.803 982.014 171.115 982.092 171.427 982.092C204.83 982.092 237.317 982.97 270.741 979.265C275.616 978.719 288.057 978.797 296.812 977.412C301.005 976.749 304.378 975.677 306.055 974.234C309.195 971.543 310.716 967.799 311.301 963.645C312.081 957.971 311.008 951.575 310.306 946.7C308.395 933.4 305.236 919.711 304.125 906.354C303.501 898.827 304.203 891.222 303.13 883.734C302.155 876.87 301.356 871.741 298.314 868.309C296.188 865.911 292.971 864.214 287.764 863.473C280.452 862.42 272.027 863.454 264.637 863.454C245.195 863.454 224.876 862.791 205.61 865.755C198.044 866.925 171.992 866.769 154.149 871.176C145.92 873.204 139.427 876.324 136.716 880.672C135.507 882.603 135.02 884.943 135 887.38C134.981 890.637 135.8 894.108 136.482 896.857C139.134 907.504 149.001 930.183 154.305 939.445C159.512 948.552 162.612 959.082 165.557 969.047C165.966 970.412 166.805 975.15 167.975 978.212C168.677 980.123 169.672 981.429 170.53 981.878ZM172.246 978.192C172.168 978.075 172.09 977.958 172.051 977.841C171.739 977.217 171.466 976.437 171.193 975.579C170.296 972.674 169.652 969.105 169.301 967.955C166.278 957.698 163.061 946.895 157.698 937.515C152.531 928.467 142.878 906.315 140.285 895.921C139.758 893.835 139.134 891.319 138.959 888.823C138.803 886.639 138.959 884.475 140.031 882.759C142.352 879.054 148.085 876.714 155.105 874.978C172.831 870.591 198.707 870.786 206.215 869.616C225.286 866.691 245.41 867.354 264.656 867.354C271.852 867.354 280.081 866.32 287.218 867.334C291.235 867.9 293.77 869.031 295.408 870.883C298.021 873.847 298.431 878.352 299.269 884.28C300.322 891.69 299.62 899.236 300.244 906.685C301.356 920.121 304.554 933.888 306.465 947.265C307.011 951.107 307.83 955.943 307.674 960.525C307.518 964.679 306.582 968.657 303.54 971.289C302.233 972.42 299.503 973.044 296.227 973.571C287.55 974.936 275.187 974.858 270.331 975.404C237.298 979.05 205.22 978.212 172.246 978.192Z" fill="white" fill-opacity="0.5"/>
<path fill-rule="evenodd" clip-rule="evenodd" d="M349.735 931.177C349.969 931.45 352.114 933.927 352.992 935.663C353.284 936.248 353.538 937.086 353.655 937.457C349.852 941.318 345.679 946.407 340.999 949.215C329.338 956.216 315.513 960.915 305.704 970.724C304.944 971.484 304.944 972.713 305.704 973.473C306.465 974.234 307.693 974.234 308.454 973.473C318.028 963.899 331.6 959.394 342.988 952.55C348.078 949.488 352.641 943.97 356.736 939.855C357.223 939.368 357.555 938.685 357.574 937.788C357.613 937.106 357.438 936.209 357.067 935.234C356.287 933.186 354.591 930.592 353.226 929.091C352.407 928.174 351.588 927.628 351.081 927.472C349.54 926.965 347.649 927.004 345.718 927.355C343.32 927.784 340.804 928.681 338.991 929.052C334.174 930.007 328.519 929.305 323.001 928.935C316.936 928.525 311.028 928.545 306.309 930.943C305.353 931.431 304.963 932.601 305.451 933.576C305.938 934.531 307.108 934.922 308.064 934.434C312.198 932.328 317.404 932.484 322.728 932.835C328.597 933.225 334.603 933.908 339.732 932.874C341.253 932.582 343.242 931.899 345.27 931.431C346.888 931.099 348.468 930.807 349.735 931.177Z" fill="white" fill-opacity="0.5"/>
<path fill-rule="evenodd" clip-rule="evenodd" d="M347.805 930.339C347.005 932.172 345.445 933.439 343.749 934.571C341.74 935.897 339.517 936.989 337.665 938.159C330.196 942.956 314.498 952.472 308.629 958.322C307.868 959.082 307.868 960.311 308.629 961.071C309.389 961.832 310.618 961.832 311.379 961.071C317.112 955.338 332.478 946.115 339.771 941.435C341.623 940.245 343.866 939.153 345.894 937.808C348.214 936.267 350.242 934.415 351.354 931.899C351.783 930.924 351.334 929.754 350.359 929.325C349.384 928.896 348.234 929.344 347.805 930.339Z" fill="white" fill-opacity="0.5"/>
<path fill-rule="evenodd" clip-rule="evenodd" d="M221.23 902.337C221.659 901.576 221.503 900.621 220.879 899.997C219.553 898.71 217.447 898.573 215.126 899.646C212.533 900.835 209.491 903.526 207.697 905.652C206.8 906.705 206.195 907.68 205.981 908.304C204.343 912.789 204.226 917.157 205.981 921.037C207.697 924.84 211.246 928.233 217.213 930.69C218.539 931.236 222.731 931.373 226.3 931.022C228.835 930.788 231.058 930.261 231.857 929.735C233.632 928.604 234.139 927.414 234.158 926.478C234.178 925.444 233.632 924.313 232.247 923.377C230.317 922.071 226.163 920.842 222.712 919.146C220.937 918.268 219.319 917.352 218.714 916.006C218.051 914.544 218.149 912.574 218.48 910.585C219.046 907.251 220.411 903.858 221.23 902.337ZM216.53 903.292C215.789 905.184 215.048 907.582 214.639 909.961C214.171 912.769 214.229 915.558 215.165 917.625C215.848 919.146 217.232 920.472 219.026 921.564C221.249 922.929 224.135 924.021 226.592 924.996C227.684 925.425 228.952 926.088 229.712 926.497C229.108 926.829 227.606 926.985 225.929 927.161C224.096 927.336 222.088 927.394 220.508 927.316C219.709 927.277 219.046 927.238 218.695 927.102C213.878 925.113 210.914 922.519 209.53 919.458C208.184 916.474 208.379 913.12 209.627 909.649C209.783 909.22 210.29 908.596 210.953 907.855C212.143 906.51 213.839 904.95 215.497 903.897C215.848 903.663 216.199 903.468 216.53 903.292Z" fill="white" fill-opacity="0.5"/>
<path fill-rule="evenodd" clip-rule="evenodd" d="M331.113 971.426C330.255 971.718 329.69 972.557 329.787 973.454C330.314 979.206 332.946 986.928 333.726 990.653C334.428 993.987 334.409 997.38 335.013 1000.71C335.618 1004.09 335.559 1003.91 335.969 1007.44C336.71 1013.76 338.718 1016.9 341.156 1018.32C343.671 1019.79 346.869 1019.55 350.457 1018.52C354.338 1017.37 358.745 1015.28 363.015 1014.72C365.277 1014.42 375.32 1013.92 379.688 1013.08C380.683 1012.88 381.424 1012.67 381.872 1012.43C382.418 1012.16 382.75 1011.83 382.925 1011.54C384.758 1008.77 385.246 1004.95 384.895 1000.89C384.446 995.391 382.555 989.463 381.541 985.797C380.585 982.365 380.312 977.666 379.259 973.473C378.46 970.314 377.231 967.428 375.164 965.361C374.228 964.425 372.571 963.957 370.543 964.074C367.325 964.269 362.937 965.849 361.358 966.122C351.822 967.877 340.746 968.247 331.113 971.426ZM379.922 1009.02C376.744 1010.02 364.946 1010.5 362.508 1010.84C358.043 1011.42 353.441 1013.57 349.365 1014.75C346.967 1015.46 344.822 1015.92 343.145 1014.95C341.39 1013.94 340.395 1011.48 339.849 1006.97C339.42 1003.31 339.479 1003.48 338.855 999.993C338.25 996.62 338.25 993.188 337.548 989.834C336.846 986.538 334.643 980.006 333.863 974.643C342.95 971.952 353.207 971.582 362.099 969.963C363.405 969.729 366.72 968.559 369.606 968.111C370.406 967.994 371.147 967.916 371.79 967.974C372.063 967.994 372.298 967.974 372.434 968.13C374.462 970.158 375.32 973.259 375.944 976.476C376.646 980.142 376.997 983.945 377.797 986.87C378.772 990.38 380.585 996.015 381.014 1001.24C381.268 1004.15 381.131 1006.95 379.922 1009.02Z" fill="white" fill-opacity="0.5"/>
<path fill-rule="evenodd" clip-rule="evenodd" d="M344.353 982.58C343.495 982.775 342.832 983.535 342.832 984.471C342.832 984.53 343.495 986.909 345.523 986.304C346.537 985.992 351.607 984.335 351.802 984.296C353.674 983.808 356.677 983.847 359.193 983.379C361.474 982.95 363.366 982.034 364.36 980.552C364.965 979.655 364.711 978.446 363.814 977.841C362.917 977.237 361.708 977.49 361.104 978.387C360.616 979.109 359.583 979.323 358.452 979.538C355.858 980.025 352.738 980.006 350.808 980.513C350.593 980.571 345.426 982.268 344.392 982.56L344.353 982.58ZM345.933 982.911C346.42 983.262 346.732 983.847 346.732 984.51C346.732 983.886 346.518 983.34 345.933 982.911ZM344.821 982.541C345.211 982.541 345.582 982.677 345.874 982.872C345.679 982.755 345.348 982.541 344.821 982.541Z" fill="white" fill-opacity="0.5"/>
<path fill-rule="evenodd" clip-rule="evenodd" d="M363.073 988.098C362.546 988.196 360.967 988.508 359.68 988.644C356.794 988.956 353.537 989.19 353.069 989.327C351.977 989.619 348.721 990.77 347.648 991.16C346.751 990.965 345.796 991.433 345.425 992.31C345.152 992.954 345.25 993.48 345.406 993.87C345.601 994.358 345.971 994.806 346.654 995.04C346.946 995.138 347.609 995.216 348.506 994.982C349.93 994.611 352.855 993.402 354.083 993.071C354.746 992.895 361.181 992.544 363.736 991.959C364.828 991.706 365.491 991.257 365.764 990.945C366.154 990.497 366.29 990.029 366.29 989.561C366.29 988.488 365.413 987.611 364.34 987.611C363.872 987.63 363.424 987.806 363.073 988.098ZM349.189 992.915C349.208 993.168 349.169 993.441 349.091 993.695C349.189 993.422 349.208 993.149 349.189 992.915Z" fill="white" fill-opacity="0.5"/>
<path fill-rule="evenodd" clip-rule="evenodd" d="M348.605 1002.7C348.02 1002.35 347.259 1002.31 346.616 1002.68C345.68 1003.23 345.368 1004.42 345.914 1005.36C346.187 1005.82 346.616 1006.21 347.24 1006.45C347.786 1006.64 348.683 1006.72 349.814 1006.51C352.212 1006.06 356.346 1004.34 359.837 1003.04C361.806 1002.29 363.503 1001.65 364.38 1001.65C365.453 1001.65 366.33 1000.77 366.33 999.701C366.33 998.628 365.453 997.751 364.38 997.751C363.6 997.751 362.294 998.043 360.734 998.57C357.731 999.584 353.499 1001.4 350.535 1002.29C349.814 1002.51 348.975 1002.65 348.605 1002.7Z" fill="white" fill-opacity="0.5"/>
</g>
<defs>
<clipPath id="clip0_66_12">
<rect width="1440" height="1881" fill="white"/>
</clipPath>
<clipPath id="clip1_66_12">
<rect width="120" height="120" fill="white" transform="translate(286 379)"/>
</clipPath>
</defs>
</svg>
