<svg width="1440" height="1881" viewBox="0 0 1440 1881" fill="none" xmlns="http://www.w3.org/2000/svg">
<g clip-path="url(#clip0_53_161)">
<line x1="59.5" y1="1881" x2="59.5" stroke="black" stroke-opacity="0.4"/>
<line x1="299.5" y1="1881" x2="299.5" stroke="black" stroke-opacity="0.4"/>
<line x1="539.5" y1="1881" x2="539.5" stroke="black" stroke-opacity="0.4"/>
<line x1="779.5" y1="1881" x2="779.5" stroke="black" stroke-opacity="0.4"/>
<line x1="1019.5" y1="1881" x2="1019.5" stroke="black" stroke-opacity="0.4"/>
<line x1="1259.5" y1="1881" x2="1259.5" stroke="black" stroke-opacity="0.4"/>
<line x1="119.5" y1="1881" x2="119.5" stroke="black" stroke-opacity="0.4"/>
<line x1="359.5" y1="1881" x2="359.5" stroke="black" stroke-opacity="0.4"/>
<line x1="599.5" y1="1881" x2="599.5" stroke="black" stroke-opacity="0.4"/>
<line x1="839.5" y1="1881" x2="839.5" stroke="black" stroke-opacity="0.4"/>
<line x1="1079.5" y1="1881" x2="1079.5" stroke="black" stroke-opacity="0.4"/>
<line x1="1319.5" y1="1881" x2="1319.5" stroke="black" stroke-opacity="0.4"/>
<line x1="179.5" y1="1881" x2="179.5" stroke="black" stroke-opacity="0.4"/>
<line x1="419.5" y1="1881" x2="419.5" stroke="black" stroke-opacity="0.4"/>
<line x1="659.5" y1="1881" x2="659.5" stroke="black" stroke-opacity="0.4"/>
<line x1="899.5" y1="1881" x2="899.5" stroke="black" stroke-opacity="0.4"/>
<line x1="1139.5" y1="1881" x2="1139.5" stroke="black" stroke-opacity="0.4"/>
<line x1="1379.5" y1="1881" x2="1379.5" stroke="black" stroke-opacity="0.4"/>
<line x1="239.5" y1="1881" x2="239.5" stroke="black" stroke-opacity="0.4"/>
<line x1="479.5" y1="1881" x2="479.5" stroke="black" stroke-opacity="0.4"/>
<line x1="719.5" y1="1881" x2="719.5" stroke="black" stroke-opacity="0.4"/>
<line x1="959.5" y1="1881" x2="959.5" stroke="black" stroke-opacity="0.4"/>
<line x1="1199.5" y1="1881" x2="1199.5" stroke="black" stroke-opacity="0.4"/>
<line x1="1439.5" y1="1881" x2="1439.5" stroke="black" stroke-opacity="0.4"/>
<g opacity="0.5" clip-path="url(#clip1_53_161)">
<path d="M931.111 502H908.889V575.351L855.589 522.051L840.051 537.589L893.351 590.889H820V613.111H893.333L840.009 666.436L855.556 681.982L908.889 628.649V702H931.111V628.649L984.448 681.986L999.986 666.448L946.649 613.111H1020V590.889H946.649L999.946 537.592L984.399 522.045L931.111 575.333V502Z" fill="black"/>
</g>
<line x1="1440" y1="1262.52" y2="1262.52" stroke="black" stroke-opacity="0.4"/>
<line x1="1440" y1="1022.52" y2="1022.52" stroke="black" stroke-opacity="0.4"/>
<line x1="1440" y1="782.516" y2="782.516" stroke="black" stroke-opacity="0.4"/>
<line x1="1440" y1="542.516" y2="542.516" stroke="black" stroke-opacity="0.4"/>
<line x1="1440" y1="302.516" y2="302.516" stroke="black" stroke-opacity="0.4"/>
<line x1="1440" y1="62.5156" y2="62.5156" stroke="black" stroke-opacity="0.4"/>
<line x1="1440" y1="1202.52" y2="1202.52" stroke="black" stroke-opacity="0.4"/>
<line x1="1440" y1="962.516" y2="962.516" stroke="black" stroke-opacity="0.4"/>
<line x1="1440" y1="722.516" y2="722.516" stroke="black" stroke-opacity="0.4"/>
<line x1="1440" y1="482.516" y2="482.516" stroke="black" stroke-opacity="0.4"/>
<line x1="1440" y1="242.516" y2="242.516" stroke="black" stroke-opacity="0.4"/>
<line x1="1440" y1="2.51562" y2="2.51562" stroke="black" stroke-opacity="0.4"/>
<line x1="1440" y1="1142.52" y2="1142.52" stroke="black" stroke-opacity="0.4"/>
<line x1="1440" y1="902.516" y2="902.516" stroke="black" stroke-opacity="0.4"/>
<line x1="1440" y1="662.516" y2="662.516" stroke="black" stroke-opacity="0.4"/>
<line x1="1440" y1="422.516" y2="422.516" stroke="black" stroke-opacity="0.4"/>
<line x1="1440" y1="182.516" y2="182.516" stroke="black" stroke-opacity="0.4"/>
<line x1="1440" y1="1082.52" y2="1082.52" stroke="black" stroke-opacity="0.4"/>
<line x1="1440" y1="842.516" y2="842.516" stroke="black" stroke-opacity="0.4"/>
<line x1="1440" y1="602.516" y2="602.516" stroke="black" stroke-opacity="0.4"/>
<line x1="1440" y1="362.516" y2="362.516" stroke="black" stroke-opacity="0.4"/>
<line x1="1440" y1="122.516" y2="122.516" stroke="black" stroke-opacity="0.4"/>
<line x1="1440" y1="1740.5" y2="1740.5" stroke="black" stroke-opacity="0.4"/>
<line x1="1440" y1="1500.5" y2="1500.5" stroke="black" stroke-opacity="0.4"/>
<line x1="1440" y1="1680.5" y2="1680.5" stroke="black" stroke-opacity="0.4"/>
<line x1="1440" y1="1440.5" y2="1440.5" stroke="black" stroke-opacity="0.4"/>
<line x1="1440" y1="1860.5" y2="1860.5" stroke="black" stroke-opacity="0.4"/>
<line x1="1440" y1="1620.5" y2="1620.5" stroke="black" stroke-opacity="0.4"/>
<line x1="1440" y1="1380.5" y2="1380.5" stroke="black" stroke-opacity="0.4"/>
<line x1="1440" y1="1800.5" y2="1800.5" stroke="black" stroke-opacity="0.4"/>
<line x1="1440" y1="1560.5" y2="1560.5" stroke="black" stroke-opacity="0.4"/>
<line x1="1440" y1="1320.5" y2="1320.5" stroke="black" stroke-opacity="0.4"/>
<g opacity="0.5">
<path fill-rule="evenodd" clip-rule="evenodd" d="M154.716 357.108C154.716 367.937 145.937 376.716 135.108 376.716C124.279 376.716 115.5 367.937 115.5 357.108C115.5 346.279 124.279 337.5 135.108 337.5C145.937 337.5 154.716 346.279 154.716 357.108ZM148.833 357.108C148.833 364.688 142.688 370.833 135.108 370.833C127.527 370.833 121.382 364.688 121.382 357.108C121.382 349.528 127.527 343.382 135.108 343.382C142.688 343.382 148.833 349.528 148.833 357.108Z" fill="black"/>
<path fill-rule="evenodd" clip-rule="evenodd" d="M135.132 388.015C152.188 388.015 166.015 374.188 166.015 357.132C166.015 340.077 152.188 326.25 135.132 326.25C118.076 326.25 104.25 340.077 104.25 357.132C104.25 374.188 118.076 388.015 135.132 388.015ZM135.132 382.132C148.939 382.132 160.132 370.94 160.132 357.132C160.132 343.325 148.939 332.132 135.132 332.132C121.325 332.132 110.132 343.325 110.132 357.132C110.132 370.94 121.325 382.132 135.132 382.132Z" fill="black"/>
<path fill-rule="evenodd" clip-rule="evenodd" d="M176.823 356.912C176.823 380.059 158.059 398.824 134.912 398.824C111.764 398.824 92.9998 380.059 92.9998 356.912C92.9998 333.765 111.764 315 134.912 315C158.059 315 176.823 333.765 176.823 356.912ZM170.941 356.912C170.941 376.81 154.81 392.941 134.912 392.941C115.013 392.941 98.8822 376.81 98.8822 356.912C98.8822 337.013 115.013 320.882 134.912 320.882C154.81 320.882 170.941 337.013 170.941 356.912Z" fill="black"/>
<path fill-rule="evenodd" clip-rule="evenodd" d="M134.691 409.632C163.93 409.632 187.632 385.93 187.632 356.691C187.632 327.453 163.93 303.75 134.691 303.75C105.452 303.75 81.7498 327.453 81.7498 356.691C81.7498 385.93 105.452 409.632 134.691 409.632ZM134.691 403.75C160.681 403.75 181.75 382.681 181.75 356.691C181.75 330.701 160.681 309.632 134.691 309.632C108.701 309.632 87.6322 330.701 87.6322 356.691C87.6322 382.681 108.701 403.75 134.691 403.75Z" fill="black"/>
<path fill-rule="evenodd" clip-rule="evenodd" d="M198.701 356.975C198.701 392.17 170.17 420.701 134.975 420.701C99.7809 420.701 71.25 392.17 71.25 356.975C71.25 321.781 99.7809 293.25 134.975 293.25C170.17 293.25 198.701 321.781 198.701 356.975ZM192.819 356.975C192.819 388.921 166.921 414.819 134.975 414.819C103.03 414.819 77.1324 388.921 77.1324 356.975C77.1324 325.03 103.03 299.132 134.975 299.132C166.921 299.132 192.819 325.03 192.819 356.975Z" fill="black"/>
<path fill-rule="evenodd" clip-rule="evenodd" d="M210 357C210 398.421 176.421 432 135 432C93.5786 432 60 398.421 60 357C60 315.579 93.5786 282 135 282C176.421 282 210 315.579 210 357ZM204.118 357C204.118 395.173 173.173 426.118 135 426.118C96.8274 426.118 65.8824 395.173 65.8824 357C65.8824 318.827 96.8274 287.882 135 287.882C173.173 287.882 204.118 318.827 204.118 357Z" fill="black"/>
</g>
<g opacity="0.5" clip-path="url(#clip2_53_161)">
<path fill-rule="evenodd" clip-rule="evenodd" d="M1180 175.629C1180 168.338 1174.09 162.429 1166.8 162.429H1133.2C1125.91 162.429 1120 168.338 1120 175.629V209.229C1120 216.519 1125.91 222.428 1133.2 222.428H1166.8C1174.09 222.428 1180 228.338 1180 235.628V268.372C1180 275.662 1185.91 281.572 1193.2 281.572H1226.8C1234.09 281.572 1240 275.662 1240 268.372V234.772C1240 227.481 1234.09 221.571 1226.8 221.571H1193.2C1185.91 221.571 1180 215.662 1180 208.371V175.629ZM1226.37 222C1233.66 222 1239.57 216.09 1239.57 208.8V175.2C1239.57 167.91 1233.66 162 1226.37 162L1192.77 162C1185.48 162 1179.57 167.91 1179.57 175.2V208.8C1179.57 216.09 1173.66 222 1166.37 222H1133.63C1126.34 222 1120.43 227.91 1120.43 235.2L1120.43 268.8C1120.43 276.09 1126.34 282 1133.63 282H1167.23C1174.52 282 1180.43 276.09 1180.43 268.8V235.2C1180.43 227.91 1186.34 222 1193.63 222H1226.37Z" fill="black"/>
</g>
<g opacity="0.5">
<path d="M893.705 1544.46C892.328 1535.8 887.803 1534.82 882.295 1541.7C884.262 1536.98 874.82 1542.89 871.672 1548.39C874.82 1542.89 874.23 1531.67 871.082 1535.8C874.23 1527.54 870.689 1524.39 862.23 1527.93C866.557 1524.79 855.344 1525.18 849.639 1528.52C855.344 1525.18 860.459 1515.34 855.344 1517.31C862.23 1511.61 860.852 1507.08 852 1505.7C857.508 1504.92 847.672 1499.61 840.984 1499.61C847.672 1499.61 857.312 1494.1 852 1493.51C861.049 1492.13 862.426 1487.61 855.344 1481.9C860.459 1483.87 855.344 1474.03 849.443 1470.69C855.148 1474.03 866.361 1474.43 862.033 1471.28C870.492 1474.62 873.836 1471.48 870.885 1463.41C874.23 1467.54 874.82 1456.33 871.475 1450.82C874.623 1456.33 884.262 1462.23 882.098 1457.51C887.607 1464.39 892.131 1463.41 893.508 1454.75C894.295 1459.87 900 1450.23 900 1443.93C900 1450.23 905.705 1459.87 906.492 1454.75C907.869 1463.41 912.393 1464.39 917.902 1457.51C915.934 1462.23 925.377 1456.33 928.525 1450.82C925.377 1456.33 925.967 1467.54 929.115 1463.41C925.967 1471.67 929.508 1474.82 937.967 1471.28C933.639 1474.43 944.852 1474.03 950.557 1470.69C944.852 1474.03 939.738 1483.87 944.852 1481.9C937.967 1487.61 939.148 1492.13 948.197 1493.51C942.689 1494.29 952.525 1499.61 959.213 1499.61C952.525 1499.61 942.885 1505.11 948.197 1505.7C939.148 1507.08 937.771 1511.61 944.852 1517.31C939.738 1515.34 944.852 1525.18 950.754 1528.52C945.049 1525.18 933.836 1524.79 938.164 1527.93C929.705 1524.59 926.361 1527.74 929.312 1535.8C925.967 1531.67 925.377 1542.89 928.721 1548.39C925.574 1542.89 915.934 1536.98 917.902 1541.7C912.393 1534.82 907.869 1535.8 906.492 1544.46C905.705 1539.34 900 1548.98 900 1555.28C900.197 1548.98 894.492 1539.34 893.705 1544.46Z" fill="black"/>
</g>
<g opacity="0.5" clip-path="url(#clip3_53_161)">
<path fill-rule="evenodd" clip-rule="evenodd" d="M240 842C240 875.137 266.863 902 300 902C266.863 902 240 928.863 240 962H247.2C247.2 932.839 270.839 909.2 300 909.2C329.161 909.2 352.8 932.839 352.8 962H360C360 928.863 333.137 902 300 902C333.137 902 360 875.137 360 842H352.8C352.8 871.161 329.161 894.8 300 894.8C270.839 894.8 247.2 871.161 247.2 842H240ZM254.4 842C254.4 867.184 274.816 887.6 300 887.6C325.184 887.6 345.6 867.184 345.6 842H338.4C338.4 863.208 321.208 880.4 300 880.4C278.792 880.4 261.6 863.208 261.6 842H254.4ZM268.8 842C268.8 859.231 282.769 873.2 300 873.2C317.231 873.2 331.2 859.231 331.2 842H324C324 855.255 313.255 866 300 866C286.745 866 276 855.255 276 842H268.8ZM300 916.4C325.184 916.4 345.6 936.816 345.6 962H338.4C338.4 940.792 321.208 923.6 300 923.6C278.792 923.6 261.6 940.792 261.6 962H254.4C254.4 936.816 274.816 916.4 300 916.4ZM300 930.8C317.231 930.8 331.2 944.769 331.2 962H324C324 948.745 313.255 938 300 938C286.745 938 276 948.745 276 962H268.8C268.8 944.769 282.769 930.8 300 930.8Z" fill="black"/>
</g>
</g>
<defs>
<clipPath id="clip0_53_161">
<rect width="1440" height="1881" fill="white"/>
</clipPath>
<clipPath id="clip1_53_161">
<rect width="200" height="200" fill="white" transform="translate(820 502)"/>
</clipPath>
<clipPath id="clip2_53_161">
<rect width="120" height="120" fill="white" transform="translate(1120 162)"/>
</clipPath>
<clipPath id="clip3_53_161">
<rect width="120" height="120" fill="white" transform="translate(240 842)"/>
</clipPath>
</defs>
</svg>
