<svg width="1440" height="1881" viewBox="0 0 1440 1881" fill="none" xmlns="http://www.w3.org/2000/svg">
<g clip-path="url(#clip0_69_141)">
<line x1="59.5" y1="1881" x2="59.5" stroke="black" stroke-opacity="0.4"/>
<line x1="299.5" y1="1881" x2="299.5" stroke="black" stroke-opacity="0.4"/>
<line x1="539.5" y1="1881" x2="539.5" stroke="black" stroke-opacity="0.4"/>
<line x1="779.5" y1="1881" x2="779.5" stroke="black" stroke-opacity="0.4"/>
<line x1="1019.5" y1="1881" x2="1019.5" stroke="black" stroke-opacity="0.4"/>
<line x1="1259.5" y1="1881" x2="1259.5" stroke="black" stroke-opacity="0.4"/>
<line x1="119.5" y1="1881" x2="119.5" stroke="black" stroke-opacity="0.4"/>
<line x1="359.5" y1="1881" x2="359.5" stroke="black" stroke-opacity="0.4"/>
<line x1="599.5" y1="1881" x2="599.5" stroke="black" stroke-opacity="0.4"/>
<line x1="839.5" y1="1881" x2="839.5" stroke="black" stroke-opacity="0.4"/>
<line x1="1079.5" y1="1881" x2="1079.5" stroke="black" stroke-opacity="0.4"/>
<line x1="1319.5" y1="1881" x2="1319.5" stroke="black" stroke-opacity="0.4"/>
<line x1="179.5" y1="1881" x2="179.5" stroke="black" stroke-opacity="0.4"/>
<line x1="419.5" y1="1881" x2="419.5" stroke="black" stroke-opacity="0.4"/>
<line x1="659.5" y1="1881" x2="659.5" stroke="black" stroke-opacity="0.4"/>
<line x1="899.5" y1="1881" x2="899.5" stroke="black" stroke-opacity="0.4"/>
<line x1="1139.5" y1="1881" x2="1139.5" stroke="black" stroke-opacity="0.4"/>
<line x1="1379.5" y1="1881" x2="1379.5" stroke="black" stroke-opacity="0.4"/>
<line x1="239.5" y1="1881" x2="239.5" stroke="black" stroke-opacity="0.4"/>
<line x1="479.5" y1="1881" x2="479.5" stroke="black" stroke-opacity="0.4"/>
<line x1="719.5" y1="1881" x2="719.5" stroke="black" stroke-opacity="0.4"/>
<line x1="959.5" y1="1881" x2="959.5" stroke="black" stroke-opacity="0.4"/>
<line x1="1199.5" y1="1881" x2="1199.5" stroke="black" stroke-opacity="0.4"/>
<line x1="1439.5" y1="1881" x2="1439.5" stroke="black" stroke-opacity="0.4"/>
<g opacity="0.5" clip-path="url(#clip1_69_141)">
<path fill-rule="evenodd" clip-rule="evenodd" d="M220 342H286.667V408.667H220V342ZM353.333 408.667H286.667V475.333H220V542H286.667V475.333H353.333V542H420V475.333H353.333V408.667ZM353.333 408.667H420V342H353.333V408.667Z" fill="black"/>
</g>
<line x1="1440" y1="1262.52" y2="1262.52" stroke="black" stroke-opacity="0.4"/>
<line x1="1440" y1="1022.52" y2="1022.52" stroke="black" stroke-opacity="0.4"/>
<line x1="1440" y1="782.516" y2="782.516" stroke="black" stroke-opacity="0.4"/>
<line x1="1440" y1="542.516" y2="542.516" stroke="black" stroke-opacity="0.4"/>
<line x1="1440" y1="302.516" y2="302.516" stroke="black" stroke-opacity="0.4"/>
<line x1="1440" y1="62.5156" y2="62.5156" stroke="black" stroke-opacity="0.4"/>
<line x1="1440" y1="1202.52" y2="1202.52" stroke="black" stroke-opacity="0.4"/>
<line x1="1440" y1="962.516" y2="962.516" stroke="black" stroke-opacity="0.4"/>
<line x1="1440" y1="722.516" y2="722.516" stroke="black" stroke-opacity="0.4"/>
<line x1="1440" y1="482.516" y2="482.516" stroke="black" stroke-opacity="0.4"/>
<line x1="1440" y1="242.516" y2="242.516" stroke="black" stroke-opacity="0.4"/>
<line x1="1440" y1="2.51562" y2="2.51562" stroke="black" stroke-opacity="0.4"/>
<line x1="1440" y1="1142.52" y2="1142.52" stroke="black" stroke-opacity="0.4"/>
<line x1="1440" y1="902.516" y2="902.516" stroke="black" stroke-opacity="0.4"/>
<line x1="1440" y1="662.516" y2="662.516" stroke="black" stroke-opacity="0.4"/>
<line x1="1440" y1="422.516" y2="422.516" stroke="black" stroke-opacity="0.4"/>
<line x1="1440" y1="182.516" y2="182.516" stroke="black" stroke-opacity="0.4"/>
<line x1="1440" y1="1082.52" y2="1082.52" stroke="black" stroke-opacity="0.4"/>
<line x1="1440" y1="842.516" y2="842.516" stroke="black" stroke-opacity="0.4"/>
<line x1="1440" y1="602.516" y2="602.516" stroke="black" stroke-opacity="0.4"/>
<line x1="1440" y1="362.516" y2="362.516" stroke="black" stroke-opacity="0.4"/>
<line x1="1440" y1="122.516" y2="122.516" stroke="black" stroke-opacity="0.4"/>
<line x1="1440" y1="1740.5" y2="1740.5" stroke="black" stroke-opacity="0.4"/>
<line x1="1440" y1="1500.5" y2="1500.5" stroke="black" stroke-opacity="0.4"/>
<line x1="1440" y1="1680.5" y2="1680.5" stroke="black" stroke-opacity="0.4"/>
<line x1="1440" y1="1440.5" y2="1440.5" stroke="black" stroke-opacity="0.4"/>
<line x1="1440" y1="1860.5" y2="1860.5" stroke="black" stroke-opacity="0.4"/>
<line x1="1440" y1="1620.5" y2="1620.5" stroke="black" stroke-opacity="0.4"/>
<line x1="1440" y1="1380.5" y2="1380.5" stroke="black" stroke-opacity="0.4"/>
<line x1="1440" y1="1800.5" y2="1800.5" stroke="black" stroke-opacity="0.4"/>
<line x1="1440" y1="1560.5" y2="1560.5" stroke="black" stroke-opacity="0.4"/>
<line x1="1440" y1="1320.5" y2="1320.5" stroke="black" stroke-opacity="0.4"/>
<g opacity="0.5">
<path fill-rule="evenodd" clip-rule="evenodd" d="M1455.72 552.36C1455.72 588.457 1426.46 617.719 1390.36 617.719C1354.26 617.719 1325 588.457 1325 552.36C1325 516.263 1354.26 487 1390.36 487C1426.46 487 1455.72 516.263 1455.72 552.36ZM1436.11 552.36C1436.11 577.628 1415.63 598.111 1390.36 598.111C1365.09 598.111 1344.61 577.628 1344.61 552.36C1344.61 527.092 1365.09 506.608 1390.36 506.608C1415.63 506.608 1436.11 527.092 1436.11 552.36Z" fill="black"/>
<path fill-rule="evenodd" clip-rule="evenodd" d="M1390.44 655.382C1447.29 655.382 1493.38 609.294 1493.38 552.441C1493.38 495.588 1447.29 449.5 1390.44 449.5C1333.59 449.5 1287.5 495.588 1287.5 552.441C1287.5 609.294 1333.59 655.382 1390.44 655.382ZM1390.44 635.775C1436.46 635.775 1473.77 598.465 1473.77 552.441C1473.77 506.418 1436.46 469.108 1390.44 469.108C1344.42 469.108 1307.11 506.418 1307.11 552.441C1307.11 598.465 1344.42 635.775 1390.44 635.775Z" fill="black"/>
<path fill-rule="evenodd" clip-rule="evenodd" d="M1529.41 551.706C1529.41 628.863 1466.86 691.412 1389.71 691.412C1312.55 691.412 1250 628.863 1250 551.706C1250 474.549 1312.55 412 1389.71 412C1466.86 412 1529.41 474.549 1529.41 551.706ZM1509.8 551.706C1509.8 618.034 1456.03 671.804 1389.71 671.804C1323.38 671.804 1269.61 618.034 1269.61 551.706C1269.61 485.378 1323.38 431.608 1389.71 431.608C1456.03 431.608 1509.8 485.378 1509.8 551.706Z" fill="black"/>
<path fill-rule="evenodd" clip-rule="evenodd" d="M1388.97 727.441C1486.43 727.441 1565.44 648.432 1565.44 550.97C1565.44 453.508 1486.43 374.5 1388.97 374.5C1291.51 374.5 1212.5 453.508 1212.5 550.97C1212.5 648.432 1291.51 727.441 1388.97 727.441ZM1388.97 707.833C1475.6 707.833 1545.83 637.603 1545.83 550.97C1545.83 464.338 1475.6 394.108 1388.97 394.108C1302.34 394.108 1232.11 464.338 1232.11 550.97C1232.11 637.603 1302.34 707.833 1388.97 707.833Z" fill="black"/>
<path fill-rule="evenodd" clip-rule="evenodd" d="M1602.34 551.918C1602.34 669.234 1507.23 764.337 1389.92 764.337C1272.6 764.337 1177.5 669.234 1177.5 551.918C1177.5 434.603 1272.6 339.5 1389.92 339.5C1507.23 339.5 1602.34 434.603 1602.34 551.918ZM1582.73 551.918C1582.73 658.405 1496.4 744.729 1389.92 744.729C1283.43 744.729 1197.11 658.405 1197.11 551.918C1197.11 445.432 1283.43 359.108 1389.92 359.108C1496.4 359.108 1582.73 445.432 1582.73 551.918Z" fill="black"/>
<path fill-rule="evenodd" clip-rule="evenodd" d="M1640 552C1640 690.071 1528.07 802 1390 802C1251.93 802 1140 690.071 1140 552C1140 413.929 1251.93 302 1390 302C1528.07 302 1640 413.929 1640 552ZM1620.39 552C1620.39 679.242 1517.24 782.392 1390 782.392C1262.76 782.392 1159.61 679.242 1159.61 552C1159.61 424.758 1262.76 321.608 1390 321.608C1517.24 321.608 1620.39 424.758 1620.39 552Z" fill="black"/>
</g>
<circle cx="884" cy="1244" r="24" fill="black" fill-opacity="0.5"/>
<circle cx="960" cy="1244" r="24" fill="black" fill-opacity="0.5"/>
<circle cx="1036" cy="1244" r="24" fill="black" fill-opacity="0.5"/>
<circle cx="884" cy="1320" r="24" fill="black" fill-opacity="0.5"/>
<circle cx="960" cy="1320" r="24" fill="black" fill-opacity="0.5"/>
<circle cx="1036" cy="1320" r="24" fill="black" fill-opacity="0.5"/>
<circle cx="884" cy="1396" r="24" fill="black" fill-opacity="0.5"/>
<circle cx="960" cy="1396" r="24" fill="black" fill-opacity="0.5"/>
<circle cx="1036" cy="1396" r="24" fill="black" fill-opacity="0.5"/>
</g>
<defs>
<clipPath id="clip0_69_141">
<rect width="1440" height="1881" fill="white"/>
</clipPath>
<clipPath id="clip1_69_141">
<rect width="200" height="200" fill="white" transform="translate(220 342)"/>
</clipPath>
</defs>
</svg>
