<svg width="1440" height="1881" viewBox="0 0 1440 1881" fill="none" xmlns="http://www.w3.org/2000/svg">
<g clip-path="url(#clip0_59_279)">
<line x1="59.5" y1="1881" x2="59.5" stroke="white" stroke-opacity="0.4"/>
<line x1="299.5" y1="1881" x2="299.5" stroke="white" stroke-opacity="0.4"/>
<line x1="539.5" y1="1881" x2="539.5" stroke="white" stroke-opacity="0.4"/>
<line x1="779.5" y1="1881" x2="779.5" stroke="white" stroke-opacity="0.4"/>
<line x1="1019.5" y1="1881" x2="1019.5" stroke="white" stroke-opacity="0.4"/>
<line x1="1259.5" y1="1881" x2="1259.5" stroke="white" stroke-opacity="0.4"/>
<line x1="119.5" y1="1881" x2="119.5" stroke="white" stroke-opacity="0.4"/>
<line x1="359.5" y1="1881" x2="359.5" stroke="white" stroke-opacity="0.4"/>
<line x1="599.5" y1="1881" x2="599.5" stroke="white" stroke-opacity="0.4"/>
<line x1="839.5" y1="1881" x2="839.5" stroke="white" stroke-opacity="0.4"/>
<line x1="1079.5" y1="1881" x2="1079.5" stroke="white" stroke-opacity="0.4"/>
<line x1="1319.5" y1="1881" x2="1319.5" stroke="white" stroke-opacity="0.4"/>
<line x1="179.5" y1="1881" x2="179.5" stroke="white" stroke-opacity="0.4"/>
<line x1="419.5" y1="1881" x2="419.5" stroke="white" stroke-opacity="0.4"/>
<line x1="659.5" y1="1881" x2="659.5" stroke="white" stroke-opacity="0.4"/>
<line x1="899.5" y1="1881" x2="899.5" stroke="white" stroke-opacity="0.4"/>
<line x1="1139.5" y1="1881" x2="1139.5" stroke="white" stroke-opacity="0.4"/>
<line x1="1379.5" y1="1881" x2="1379.5" stroke="white" stroke-opacity="0.4"/>
<line x1="239.5" y1="1881" x2="239.5" stroke="white" stroke-opacity="0.4"/>
<line x1="479.5" y1="1881" x2="479.5" stroke="white" stroke-opacity="0.4"/>
<line x1="719.5" y1="1881" x2="719.5" stroke="white" stroke-opacity="0.4"/>
<line x1="959.5" y1="1881" x2="959.5" stroke="white" stroke-opacity="0.4"/>
<line x1="1199.5" y1="1881" x2="1199.5" stroke="white" stroke-opacity="0.4"/>
<line x1="1439.5" y1="1881" x2="1439.5" stroke="white" stroke-opacity="0.4"/>
<path fill-rule="evenodd" clip-rule="evenodd" d="M666.797 241.998C597.17 293.288 638.739 334.857 690.011 265.217C741.252 334.857 782.821 293.288 713.226 241.998C782.853 190.716 741.284 149.139 690.011 218.787C638.707 149.163 597.138 190.716 666.797 241.998ZM690 257C698.284 257 705 250.284 705 242C705 233.716 698.284 227 690 227C681.716 227 675 233.716 675 242C675 250.284 681.716 257 690 257Z" fill="white" fill-opacity="0.5"/>
<g clip-path="url(#clip1_59_279)">
<path fill-rule="evenodd" clip-rule="evenodd" d="M1232.8 962C1232.8 991.161 1209.16 1014.8 1180 1014.8C1150.84 1014.8 1127.2 991.161 1127.2 962C1127.2 932.839 1150.84 909.2 1180 909.2C1209.16 909.2 1232.8 932.839 1232.8 962ZM1240 962C1240 995.137 1213.14 1022 1180 1022C1146.86 1022 1120 995.137 1120 962C1120 928.863 1146.86 902 1180 902C1213.14 902 1240 928.863 1240 962ZM1180 968.6C1183.65 968.6 1186.6 965.645 1186.6 962C1186.6 958.355 1183.65 955.4 1180 955.4C1176.35 955.4 1173.4 958.355 1173.4 962C1173.4 965.645 1176.35 968.6 1180 968.6Z" fill="white" fill-opacity="0.5"/>
</g>
<line x1="1440" y1="1262.52" y2="1262.52" stroke="white" stroke-opacity="0.4"/>
<line x1="1440" y1="1022.52" y2="1022.52" stroke="white" stroke-opacity="0.4"/>
<line x1="1440" y1="782.516" y2="782.516" stroke="white" stroke-opacity="0.4"/>
<line x1="1440" y1="542.516" y2="542.516" stroke="white" stroke-opacity="0.4"/>
<line x1="1440" y1="302.516" y2="302.516" stroke="white" stroke-opacity="0.4"/>
<line x1="1440" y1="62.5156" y2="62.5156" stroke="white" stroke-opacity="0.4"/>
<line x1="1440" y1="1202.52" y2="1202.52" stroke="white" stroke-opacity="0.4"/>
<line x1="1440" y1="962.516" y2="962.516" stroke="white" stroke-opacity="0.4"/>
<line x1="1440" y1="722.516" y2="722.516" stroke="white" stroke-opacity="0.4"/>
<line x1="1440" y1="482.516" y2="482.516" stroke="white" stroke-opacity="0.4"/>
<line x1="1440" y1="242.516" y2="242.516" stroke="white" stroke-opacity="0.4"/>
<line x1="1440" y1="2.51562" y2="2.51562" stroke="white" stroke-opacity="0.4"/>
<line x1="1440" y1="1142.52" y2="1142.52" stroke="white" stroke-opacity="0.4"/>
<line x1="1440" y1="902.516" y2="902.516" stroke="white" stroke-opacity="0.4"/>
<line x1="1440" y1="662.516" y2="662.516" stroke="white" stroke-opacity="0.4"/>
<line x1="1440" y1="422.516" y2="422.516" stroke="white" stroke-opacity="0.4"/>
<line x1="1440" y1="182.516" y2="182.516" stroke="white" stroke-opacity="0.4"/>
<line x1="1440" y1="1082.52" y2="1082.52" stroke="white" stroke-opacity="0.4"/>
<line x1="1440" y1="842.516" y2="842.516" stroke="white" stroke-opacity="0.4"/>
<line x1="1440" y1="602.516" y2="602.516" stroke="white" stroke-opacity="0.4"/>
<line x1="1440" y1="362.516" y2="362.516" stroke="white" stroke-opacity="0.4"/>
<line x1="1440" y1="122.516" y2="122.516" stroke="white" stroke-opacity="0.4"/>
<line x1="1440" y1="1740.5" y2="1740.5" stroke="white" stroke-opacity="0.4"/>
<line x1="1440" y1="1500.5" y2="1500.5" stroke="white" stroke-opacity="0.4"/>
<line x1="1440" y1="1680.5" y2="1680.5" stroke="white" stroke-opacity="0.4"/>
<line x1="1440" y1="1440.5" y2="1440.5" stroke="white" stroke-opacity="0.4"/>
<line x1="1440" y1="1860.5" y2="1860.5" stroke="white" stroke-opacity="0.4"/>
<line x1="1440" y1="1620.5" y2="1620.5" stroke="white" stroke-opacity="0.4"/>
<line x1="1440" y1="1380.5" y2="1380.5" stroke="white" stroke-opacity="0.4"/>
<line x1="1440" y1="1800.5" y2="1800.5" stroke="white" stroke-opacity="0.4"/>
<line x1="1440" y1="1560.5" y2="1560.5" stroke="white" stroke-opacity="0.4"/>
<line x1="1440" y1="1320.5" y2="1320.5" stroke="white" stroke-opacity="0.4"/>
<g opacity="0.5">
<path fill-rule="evenodd" clip-rule="evenodd" d="M154.716 357.108C154.716 367.937 145.937 376.716 135.108 376.716C124.279 376.716 115.5 367.937 115.5 357.108C115.5 346.279 124.279 337.5 135.108 337.5C145.937 337.5 154.716 346.279 154.716 357.108ZM148.833 357.108C148.833 364.688 142.688 370.833 135.108 370.833C127.527 370.833 121.382 364.688 121.382 357.108C121.382 349.528 127.527 343.382 135.108 343.382C142.688 343.382 148.833 349.528 148.833 357.108Z" fill="white"/>
<path fill-rule="evenodd" clip-rule="evenodd" d="M135.132 388.015C152.188 388.015 166.015 374.188 166.015 357.132C166.015 340.077 152.188 326.25 135.132 326.25C118.076 326.25 104.25 340.077 104.25 357.132C104.25 374.188 118.076 388.015 135.132 388.015ZM135.132 382.132C148.939 382.132 160.132 370.94 160.132 357.132C160.132 343.325 148.939 332.132 135.132 332.132C121.325 332.132 110.132 343.325 110.132 357.132C110.132 370.94 121.325 382.132 135.132 382.132Z" fill="white"/>
<path fill-rule="evenodd" clip-rule="evenodd" d="M176.823 356.912C176.823 380.059 158.059 398.824 134.912 398.824C111.764 398.824 92.9998 380.059 92.9998 356.912C92.9998 333.765 111.764 315 134.912 315C158.059 315 176.823 333.765 176.823 356.912ZM170.941 356.912C170.941 376.81 154.81 392.941 134.912 392.941C115.013 392.941 98.8822 376.81 98.8822 356.912C98.8822 337.013 115.013 320.882 134.912 320.882C154.81 320.882 170.941 337.013 170.941 356.912Z" fill="white"/>
<path fill-rule="evenodd" clip-rule="evenodd" d="M134.691 409.632C163.93 409.632 187.632 385.93 187.632 356.691C187.632 327.453 163.93 303.75 134.691 303.75C105.452 303.75 81.7498 327.453 81.7498 356.691C81.7498 385.93 105.452 409.632 134.691 409.632ZM134.691 403.75C160.681 403.75 181.75 382.681 181.75 356.691C181.75 330.701 160.681 309.632 134.691 309.632C108.701 309.632 87.6322 330.701 87.6322 356.691C87.6322 382.681 108.701 403.75 134.691 403.75Z" fill="white"/>
<path fill-rule="evenodd" clip-rule="evenodd" d="M198.701 356.975C198.701 392.17 170.17 420.701 134.975 420.701C99.7809 420.701 71.25 392.17 71.25 356.975C71.25 321.781 99.7809 293.25 134.975 293.25C170.17 293.25 198.701 321.781 198.701 356.975ZM192.819 356.975C192.819 388.921 166.921 414.819 134.975 414.819C103.03 414.819 77.1324 388.921 77.1324 356.975C77.1324 325.03 103.03 299.132 134.975 299.132C166.921 299.132 192.819 325.03 192.819 356.975Z" fill="white"/>
<path fill-rule="evenodd" clip-rule="evenodd" d="M210 357C210 398.421 176.421 432 135 432C93.5786 432 60 398.421 60 357C60 315.579 93.5786 282 135 282C176.421 282 210 315.579 210 357ZM204.118 357C204.118 395.173 173.173 426.118 135 426.118C96.8274 426.118 65.8824 395.173 65.8824 357C65.8824 318.827 96.8274 287.882 135 287.882C173.173 287.882 204.118 318.827 204.118 357Z" fill="white"/>
</g>
<g opacity="0.5">
<path fill-rule="evenodd" clip-rule="evenodd" d="M1144.72 1515.11C1144.72 1525.94 1135.94 1534.72 1125.11 1534.72C1114.28 1534.72 1105.5 1525.94 1105.5 1515.11C1105.5 1504.28 1114.28 1495.5 1125.11 1495.5C1135.94 1495.5 1144.72 1504.28 1144.72 1515.11ZM1138.83 1515.11C1138.83 1522.69 1132.69 1528.83 1125.11 1528.83C1117.53 1528.83 1111.38 1522.69 1111.38 1515.11C1111.38 1507.53 1117.53 1501.38 1125.11 1501.38C1132.69 1501.38 1138.83 1507.53 1138.83 1515.11Z" fill="white"/>
<path fill-rule="evenodd" clip-rule="evenodd" d="M1125.13 1546.01C1142.19 1546.01 1156.01 1532.19 1156.01 1515.13C1156.01 1498.08 1142.19 1484.25 1125.13 1484.25C1108.08 1484.25 1094.25 1498.08 1094.25 1515.13C1094.25 1532.19 1108.08 1546.01 1125.13 1546.01ZM1125.13 1540.13C1138.94 1540.13 1150.13 1528.94 1150.13 1515.13C1150.13 1501.33 1138.94 1490.13 1125.13 1490.13C1111.33 1490.13 1100.13 1501.33 1100.13 1515.13C1100.13 1528.94 1111.33 1540.13 1125.13 1540.13Z" fill="white"/>
<path fill-rule="evenodd" clip-rule="evenodd" d="M1166.82 1514.91C1166.82 1538.06 1148.06 1556.82 1124.91 1556.82C1101.76 1556.82 1083 1538.06 1083 1514.91C1083 1491.76 1101.76 1473 1124.91 1473C1148.06 1473 1166.82 1491.76 1166.82 1514.91ZM1160.94 1514.91C1160.94 1534.81 1144.81 1550.94 1124.91 1550.94C1105.01 1550.94 1088.88 1534.81 1088.88 1514.91C1088.88 1495.01 1105.01 1478.88 1124.91 1478.88C1144.81 1478.88 1160.94 1495.01 1160.94 1514.91Z" fill="white"/>
<path fill-rule="evenodd" clip-rule="evenodd" d="M1124.69 1567.63C1153.93 1567.63 1177.63 1543.93 1177.63 1514.69C1177.63 1485.45 1153.93 1461.75 1124.69 1461.75C1095.45 1461.75 1071.75 1485.45 1071.75 1514.69C1071.75 1543.93 1095.45 1567.63 1124.69 1567.63ZM1124.69 1561.75C1150.68 1561.75 1171.75 1540.68 1171.75 1514.69C1171.75 1488.7 1150.68 1467.63 1124.69 1467.63C1098.7 1467.63 1077.63 1488.7 1077.63 1514.69C1077.63 1540.68 1098.7 1561.75 1124.69 1561.75Z" fill="white"/>
<path fill-rule="evenodd" clip-rule="evenodd" d="M1188.7 1514.98C1188.7 1550.17 1160.17 1578.7 1124.98 1578.7C1089.78 1578.7 1061.25 1550.17 1061.25 1514.98C1061.25 1479.78 1089.78 1451.25 1124.98 1451.25C1160.17 1451.25 1188.7 1479.78 1188.7 1514.98ZM1182.82 1514.98C1182.82 1546.92 1156.92 1572.82 1124.98 1572.82C1093.03 1572.82 1067.13 1546.92 1067.13 1514.98C1067.13 1483.03 1093.03 1457.13 1124.98 1457.13C1156.92 1457.13 1182.82 1483.03 1182.82 1514.98Z" fill="white"/>
<path fill-rule="evenodd" clip-rule="evenodd" d="M1200 1515C1200 1556.42 1166.42 1590 1125 1590C1083.58 1590 1050 1556.42 1050 1515C1050 1473.58 1083.58 1440 1125 1440C1166.42 1440 1200 1473.58 1200 1515ZM1194.12 1515C1194.12 1553.17 1163.17 1584.12 1125 1584.12C1086.83 1584.12 1055.88 1553.17 1055.88 1515C1055.88 1476.83 1086.83 1445.88 1125 1445.88C1163.17 1445.88 1194.12 1476.83 1194.12 1515Z" fill="white"/>
</g>
<g opacity="0.5" clip-path="url(#clip2_59_279)">
<path fill-rule="evenodd" clip-rule="evenodd" d="M1180 175.629C1180 168.338 1174.09 162.429 1166.8 162.429H1133.2C1125.91 162.429 1120 168.338 1120 175.629V209.229C1120 216.519 1125.91 222.428 1133.2 222.428H1166.8C1174.09 222.428 1180 228.338 1180 235.628V268.372C1180 275.662 1185.91 281.572 1193.2 281.572H1226.8C1234.09 281.572 1240 275.662 1240 268.372V234.772C1240 227.481 1234.09 221.571 1226.8 221.571H1193.2C1185.91 221.571 1180 215.662 1180 208.371V175.629ZM1226.37 222C1233.66 222 1239.57 216.09 1239.57 208.8V175.2C1239.57 167.91 1233.66 162 1226.37 162L1192.77 162C1185.48 162 1179.57 167.91 1179.57 175.2V208.8C1179.57 216.09 1173.66 222 1166.37 222H1133.63C1126.34 222 1120.43 227.91 1120.43 235.2L1120.43 268.8C1120.43 276.09 1126.34 282 1133.63 282H1167.23C1174.52 282 1180.43 276.09 1180.43 268.8V235.2C1180.43 227.91 1186.34 222 1193.63 222H1226.37Z" fill="white"/>
</g>
<g opacity="0.5" clip-path="url(#clip3_59_279)">
<path fill-rule="evenodd" clip-rule="evenodd" d="M690 1376.63C690 1369.34 684.09 1363.43 676.8 1363.43H643.2C635.91 1363.43 630 1369.34 630 1376.63V1410.23C630 1417.52 635.91 1423.43 643.2 1423.43H676.8C684.09 1423.43 690 1429.34 690 1436.63V1469.37C690 1476.66 695.91 1482.57 703.2 1482.57H736.8C744.09 1482.57 750 1476.66 750 1469.37V1435.77C750 1428.48 744.09 1422.57 736.8 1422.57H703.2C695.91 1422.57 690 1416.66 690 1409.37V1376.63ZM736.372 1423C743.662 1423 749.572 1417.09 749.572 1409.8V1376.2C749.572 1368.91 743.662 1363 736.372 1363L702.772 1363C695.481 1363 689.571 1368.91 689.571 1376.2V1409.8C689.571 1417.09 683.662 1423 676.371 1423H643.629C636.338 1423 630.429 1428.91 630.429 1436.2L630.429 1469.8C630.429 1477.09 636.338 1483 643.629 1483H677.229C684.519 1483 690.428 1477.09 690.428 1469.8V1436.2C690.428 1428.91 696.338 1423 703.628 1423H736.372Z" fill="white"/>
</g>
<g opacity="0.5">
<path d="M893.705 671.459C892.328 662.803 887.803 661.82 882.295 668.705C884.262 663.984 874.82 669.885 871.672 675.393C874.82 669.885 874.23 658.672 871.082 662.803C874.23 654.541 870.689 651.393 862.23 654.934C866.557 651.787 855.344 652.18 849.639 655.525C855.344 652.18 860.459 642.344 855.344 644.311C862.23 638.607 860.852 634.082 852 632.705C857.508 631.918 847.672 626.607 840.984 626.607C847.672 626.607 857.312 621.098 852 620.508C861.049 619.131 862.426 614.607 855.344 608.902C860.459 610.869 855.344 601.033 849.443 597.689C855.148 601.033 866.361 601.426 862.033 598.279C870.492 601.623 873.836 598.475 870.885 590.41C874.23 594.541 874.82 583.328 871.475 577.82C874.623 583.328 884.262 589.23 882.098 584.508C887.607 591.393 892.131 590.41 893.508 581.754C894.295 586.869 900 577.23 900 570.934C900 577.23 905.705 586.869 906.492 581.754C907.869 590.41 912.393 591.393 917.902 584.508C915.934 589.23 925.377 583.328 928.525 577.82C925.377 583.328 925.967 594.541 929.115 590.41C925.967 598.672 929.508 601.82 937.967 598.279C933.639 601.426 944.852 601.033 950.557 597.689C944.852 601.033 939.738 610.869 944.852 608.902C937.967 614.607 939.148 619.131 948.197 620.508C942.689 621.295 952.525 626.607 959.213 626.607C952.525 626.607 942.885 632.115 948.197 632.705C939.148 634.082 937.771 638.607 944.852 644.311C939.738 642.344 944.852 652.18 950.754 655.525C945.049 652.18 933.836 651.787 938.164 654.934C929.705 651.59 926.361 654.738 929.312 662.803C925.967 658.672 925.377 669.885 928.721 675.393C925.574 669.885 915.934 663.984 917.902 668.705C912.393 661.82 907.869 662.803 906.492 671.459C905.705 666.344 900 675.984 900 682.279C900.197 675.984 894.492 666.344 893.705 671.459Z" fill="white"/>
</g>
<g opacity="0.5" clip-path="url(#clip4_59_279)">
<path fill-rule="evenodd" clip-rule="evenodd" d="M240 842C240 875.137 266.863 902 300 902C266.863 902 240 928.863 240 962H247.2C247.2 932.839 270.839 909.2 300 909.2C329.161 909.2 352.8 932.839 352.8 962H360C360 928.863 333.137 902 300 902C333.137 902 360 875.137 360 842H352.8C352.8 871.161 329.161 894.8 300 894.8C270.839 894.8 247.2 871.161 247.2 842H240ZM254.4 842C254.4 867.184 274.816 887.6 300 887.6C325.184 887.6 345.6 867.184 345.6 842H338.4C338.4 863.208 321.208 880.4 300 880.4C278.792 880.4 261.6 863.208 261.6 842H254.4ZM268.8 842C268.8 859.231 282.769 873.2 300 873.2C317.231 873.2 331.2 859.231 331.2 842H324C324 855.255 313.255 866 300 866C286.745 866 276 855.255 276 842H268.8ZM300 916.4C325.184 916.4 345.6 936.816 345.6 962H338.4C338.4 940.792 321.208 923.6 300 923.6C278.792 923.6 261.6 940.792 261.6 962H254.4C254.4 936.816 274.816 916.4 300 916.4ZM300 930.8C317.231 930.8 331.2 944.769 331.2 962H324C324 948.745 313.255 938 300 938C286.745 938 276 948.745 276 962H268.8C268.8 944.769 282.769 930.8 300 930.8Z" fill="white"/>
</g>
<g opacity="0.5" clip-path="url(#clip5_59_279)">
<path fill-rule="evenodd" clip-rule="evenodd" d="M120 1500C120 1533.14 146.863 1560 180 1560C146.863 1560 120 1586.86 120 1620H127.2C127.2 1590.84 150.839 1567.2 180 1567.2C209.161 1567.2 232.8 1590.84 232.8 1620H240C240 1586.86 213.137 1560 180 1560C213.137 1560 240 1533.14 240 1500H232.8C232.8 1529.16 209.161 1552.8 180 1552.8C150.839 1552.8 127.2 1529.16 127.2 1500H120ZM134.4 1500C134.4 1525.18 154.816 1545.6 180 1545.6C205.184 1545.6 225.6 1525.18 225.6 1500H218.4C218.4 1521.21 201.208 1538.4 180 1538.4C158.792 1538.4 141.6 1521.21 141.6 1500H134.4ZM148.8 1500C148.8 1517.23 162.769 1531.2 180 1531.2C197.231 1531.2 211.2 1517.23 211.2 1500H204C204 1513.25 193.255 1524 180 1524C166.745 1524 156 1513.25 156 1500H148.8ZM180 1574.4C205.184 1574.4 225.6 1594.82 225.6 1620H218.4C218.4 1598.79 201.208 1581.6 180 1581.6C158.792 1581.6 141.6 1598.79 141.6 1620H134.4C134.4 1594.82 154.816 1574.4 180 1574.4ZM180 1588.8C197.231 1588.8 211.2 1602.77 211.2 1620H204C204 1606.75 193.255 1596 180 1596C166.745 1596 156 1606.75 156 1620H148.8C148.8 1602.77 162.769 1588.8 180 1588.8Z" fill="white"/>
</g>
</g>
<defs>
<clipPath id="clip0_59_279">
<rect width="1440" height="1881" fill="white"/>
</clipPath>
<clipPath id="clip1_59_279">
<rect width="120" height="120" fill="white" transform="translate(1120 902)"/>
</clipPath>
<clipPath id="clip2_59_279">
<rect width="120" height="120" fill="white" transform="translate(1120 162)"/>
</clipPath>
<clipPath id="clip3_59_279">
<rect width="120" height="120" fill="white" transform="translate(630 1363)"/>
</clipPath>
<clipPath id="clip4_59_279">
<rect width="120" height="120" fill="white" transform="translate(240 842)"/>
</clipPath>
<clipPath id="clip5_59_279">
<rect width="120" height="120" fill="white" transform="translate(120 1500)"/>
</clipPath>
</defs>
</svg>
