<svg width="504" height="133" viewBox="0 0 504 133" fill="none" xmlns="http://www.w3.org/2000/svg">
<path d="M97.584 76.632C97.584 65.4 104.424 56.544 114.864 56.544C118.896 56.544 122.352 57.984 125.376 60.864V44.304H137.688V96H126.384V91.608C123.216 94.92 119.4 96.72 114.864 96.72C104.424 96.72 97.584 87.72 97.584 76.632ZM110.4 76.632C110.4 82.68 114.072 85.632 117.816 85.632C121.632 85.632 125.232 82.68 125.232 76.56C125.232 70.368 121.56 67.632 117.816 67.632C114.072 67.632 110.4 70.44 110.4 76.632ZM185.839 76.632C185.839 87.864 178.999 96.72 168.559 96.72C164.527 96.72 161.071 95.28 158.047 92.4V109.896H145.735V57.264H157.039V61.656C160.207 58.344 164.023 56.544 168.559 56.544C178.999 56.544 185.839 65.544 185.839 76.632ZM173.023 76.632C173.023 70.584 169.351 67.632 165.607 67.632C161.791 67.632 158.191 70.584 158.191 76.704C158.191 82.896 161.863 85.632 165.607 85.632C169.351 85.632 173.023 82.824 173.023 76.632ZM217.079 83.904V94.632C214.343 96.144 211.751 96.72 208.295 96.72C199.583 96.72 194.471 91.536 194.471 82.68V67.992H187.271V57.264H194.471V45.888H206.783V57.264H217.367V67.992H206.783V79.8C206.783 83.544 208.367 85.272 211.751 85.272C213.767 85.272 215.711 84.768 217.079 83.904ZM235.18 75.624V96H222.868V57.264H234.172V61.944C237.196 58.56 240.796 56.544 245.692 56.544C253.324 56.544 258.724 61.656 258.724 71.088V96H246.412V75.192C246.412 70.296 244.684 67.632 240.94 67.632C237.916 67.632 235.18 69.792 235.18 75.624ZM300.806 82.824C300.806 91.392 294.47 96.72 282.806 96.72C271.142 96.72 264.806 91.248 264.014 82.32H275.822C275.822 85.56 278.774 87.648 283.022 87.648C285.83 87.648 288.35 87 288.35 84.984C288.35 83.256 287.054 82.536 284.39 82.032L276.758 80.664C269.99 79.44 265.67 75.552 265.67 69.288C265.67 61.8 272.006 56.544 282.158 56.544C292.31 56.544 299.366 61.944 300.086 70.584H288.278C287.99 67.488 285.614 65.616 282.23 65.616C279.35 65.616 277.478 66.408 277.478 68.136C277.478 69.792 278.702 70.296 281.15 70.728L289.358 72.24C296.846 73.608 300.806 77.28 300.806 82.824ZM319.063 75.624V96H306.751V44.304H319.063V61.44C321.871 58.416 324.679 56.544 329.575 56.544C337.207 56.544 342.607 61.656 342.607 71.088V96H330.295V75.192C330.295 70.296 328.567 67.632 324.823 67.632C321.799 67.632 319.063 69.792 319.063 75.624ZM373.313 79.368V57.264H385.625V96H374.321V91.824C372.161 94.704 368.057 96.72 363.521 96.72C355.816 96.72 349.985 91.896 349.985 81.672V57.264H362.297V79.368C362.297 83.616 364.385 85.704 367.841 85.704C370.289 85.704 373.313 83.76 373.313 79.368Z" fill="black"/>
<g clip-path="url(#clip0_16_2)">
<path d="M405 6C406.019 22.1279 418.872 34.9816 435 36C418.872 37.0185 406.019 49.872 405 66C403.982 49.872 391.128 37.0185 375 36C391.128 34.9816 403.982 22.1279 405 6Z" fill="black"/>
</g>
<defs>
<clipPath id="clip0_16_2">
<rect width="60" height="60" fill="white" transform="translate(375 6)"/>
</clipPath>
</defs>
</svg>
