<svg width="256" height="256" viewBox="0 0 256 256" fill="none" xmlns="http://www.w3.org/2000/svg">
<g clip-path="url(#clip0_26_140)">
<path d="M54.5 197.75C54.5 158.75 78.25 128 114.5 128C128.5 128 140.5 133 151 143V85.5H193.75V265H154.5V249.75C143.5 261.25 130.25 267.5 114.5 267.5C78.25 267.5 54.5 236.25 54.5 197.75ZM99 197.75C99 218.75 111.75 229 124.75 229C138 229 150.5 218.75 150.5 197.5C150.5 176 137.75 166.5 124.75 166.5C111.75 166.5 99 176.25 99 197.75Z" fill="black"/>
<g clip-path="url(#clip1_26_140)">
<path d="M173 12C174.019 28.1279 186.872 40.9816 203 42C186.872 43.0185 174.019 55.872 173 72C171.982 55.872 159.128 43.0185 143 42C159.128 40.9816 171.982 28.1279 173 12Z" fill="black"/>
</g>
</g>
<defs>
<clipPath id="clip0_26_140">
<rect width="256" height="256" fill="white"/>
</clipPath>
<clipPath id="clip1_26_140">
<rect width="60" height="60" fill="white" transform="translate(143 12)"/>
</clipPath>
</defs>
</svg>
